<svg xmlns="http://www.w3.org/2000/svg" width="512" height="512">
  <path d="M0 0h512v512H0z" fill="#6AAA64"/>
  <path d="M59 107h66c1.374 3.434 2.391 6.246 3.191 9.77l.66 2.879.712 3.163.773 3.393a5479 5479 0 0 1 4.777 21.248l2.262 10.11.579 2.586a1870 1870 0 0 0 8.737 37.216A1086 1086 0 0 1 153 224.5c2.196 10.056 4.556 20.064 7 30.063 2.512 10.28 4.993 20.564 7.375 30.875l.723 3.117a395 395 0 0 1 3.46 16.566c.269 1.88.269 1.88 1.442 2.879 2.62-9.57 5.05-19.182 7.438-28.812 1.919-7.74 3.865-15.46 6.062-23.125 2.594-9.064 4.731-18.233 6.914-27.403 1.743-7.281 3.6-14.501 5.672-21.695 2.015-7.104 3.704-14.283 5.414-21.465 2.038-8.563 4.148-17.075 6.586-25.533 2.353-8.29 4.287-16.687 6.24-25.078 2.229-9.443 4.923-18.536 7.674-27.889h62c5.763 20.748 5.763 20.748 7.684 28.469l.675 2.695q.696 2.782 1.388 5.565 1.025 4.113 2.06 8.224c2.167 8.667 4.276 17.343 6.26 26.054 2.925 12.842 6.04 25.626 9.29 38.39q1.26 4.947 2.512 9.897 2.656 10.479 5.318 20.956 3.107 12.228 6.205 24.46a9860 9860 0 0 0 2.458 9.667c2.581 10.172 5.08 20.332 7.15 30.623l.741-2.97c1.707-6.837 3.42-13.673 5.154-20.503 3.692-14.587 7.2-29.188 10.46-43.879 2.219-9.931 4.652-19.796 7.155-29.658 2.484-9.8 4.8-19.62 6.99-29.49 2.6-11.714 5.399-23.357 8.396-34.975C380.586 136.078 383.71 121.57 387 107h65c-.966 5.793-2.258 11.374-3.687 17.063l-.805 3.213c-1.957 7.737-4.093 15.408-6.327 23.068-1.935 6.674-3.64 13.388-5.287 20.137-1.71 6.94-3.664 13.794-5.661 20.655-1.976 6.836-3.721 13.713-5.409 20.626-1.478 5.996-3.165 11.904-4.951 17.814-1.601 5.355-2.985 10.745-4.31 16.174-1.919 7.856-4.07 15.621-6.33 23.385-1.976 6.837-3.72 13.714-5.409 20.627-1.478 5.996-3.165 11.904-4.951 17.814-1.601 5.355-2.985 10.745-4.31 16.174-1.919 7.856-4.07 15.621-6.33 23.385-1.736 6.008-3.312 12.04-4.796 18.115-1.886 7.721-4.017 15.338-6.304 22.95a448 448 0 0 0-3.555 12.698A100 100 0 0 1 372 406h-66c-9.678-38.097-9.678-38.097-12.82-50.512l-.628-2.479a22023 22023 0 0 1-13.144-52.2q-1.142-4.56-2.288-9.122c-4.09-16.285-8.066-32.585-11.802-48.955a1046 1046 0 0 0-5.134-21.31c-.52-2.075-1.032-4.152-1.545-6.229l-1.002-4.01-.884-3.545c-.494-2.541-.494-2.541-1.753-3.638l-.384 1.618q-2.017 8.497-4.041 16.992-.75 3.15-1.498 6.303c-2.672 11.26-5.405 22.49-8.389 33.671-1.669 6.274-3.153 12.579-4.563 18.916a791 791 0 0 1-6.625 27c-2.626 9.965-5.026 19.961-7.3 30.012-1.817 7.972-3.836 15.875-5.944 23.775-2.266 8.568-4.25 17.194-6.164 25.848l-.697 3.107-.599 2.715c-1.065 4.072-2.465 8.05-3.796 12.043h-67l-6-23c-1.88-6.522-1.88-6.522-3.767-13.042-3.137-10.902-5.761-21.938-8.484-32.948-1.957-7.866-4.085-15.682-6.3-23.479-4.196-14.796-8.025-29.656-11.716-44.585-1.952-7.845-4.075-15.639-6.284-23.415a1098 1098 0 0 1-9.894-37.368C83.84 201.231 82.01 194.353 80 187.5c-3.443-11.739-6.315-23.616-9.251-35.49-2.034-8.172-4.26-16.287-6.546-24.393-.32-1.14-.642-2.28-.973-3.454q-.968-3.433-1.945-6.863l-.894-3.163-.812-2.853C59 109 59 109 59 107" fill="#FEFEFE"/>
</svg>
